<?xml version="1.0" standalone="no"?>
<!DOCTYPE svg PUBLIC "-//W3C//DTD SVG 20010904//EN"
 "http://www.w3.org/TR/2001/REC-SVG-20010904/DTD/svg10.dtd">
<svg version="1.0" xmlns="http://www.w3.org/2000/svg"
 width="251.000000pt" height="155.000000pt" viewBox="0 0 251.000000 155.000000"
 preserveAspectRatio="xMidYMid meet">

<g transform="translate(0.000000,155.000000) scale(0.100000,-0.100000)"
fill="#000000" stroke="none">
<path d="M50 1305 l0 -165 520 0 520 0 0 165 0 165 -520 0 -520 0 0 -165z"/>
<path d="M1531 1459 c-86 -15 -166 -56 -216 -111 -41 -46 -79 -123 -86 -178
l-4 -25 613 -3 612 -2 0 165 0 165 -432 -1 c-238 -1 -457 -5 -487 -10z"/>
<path d="M50 485 l0 -435 165 0 165 0 0 275 0 275 355 0 355 0 0 160 0 160
-520 0 -520 0 0 -435z"/>
<path d="M1231 879 c31 -138 142 -241 288 -269 29 -5 157 -10 283 -10 296 0
318 -8 318 -117 -1 -34 -7 -55 -21 -73 l-21 -25 -752 -5 -751 -5 -3 -162 -2
-163 752 0 c812 0 833 2 934 53 105 54 166 153 186 301 28 207 -39 387 -169
458 -101 55 -128 58 -609 58 l-442 0 9 -41z"/>
</g>
</svg>
